<?xml version="1.0" standalone="no"?>
<!DOCTYPE svg PUBLIC "-//W3C//DTD SVG 20010904//EN"
 "http://www.w3.org/TR/2001/REC-SVG-20010904/DTD/svg10.dtd">
<svg version="1.0" xmlns="http://www.w3.org/2000/svg"
 width="193.000000pt" height="193.000000pt" viewBox="0 0 193.000000 193.000000"
 preserveAspectRatio="xMidYMid meet">
<metadata>
Created by potrace 1.11, written by Peter Selinger 2001-2013
</metadata>
<g transform="translate(0.000000,193.000000) scale(0.100000,-0.100000)"
fill="#000000" stroke="none">
<path d="M189 1920 c-1 -3 -2 -191 -3 -418 l-1 -412 535 2 535 3 0 340 0 340
165 0 165 0 2 -408 c1 -225 4 -411 6 -414 5 -4 48 -6 114 -4 l32 1 -2 487 -2
488 -308 0 c-170 0 -312 -2 -316 -5 -4 -3 -7 -156 -6 -340 l0 -335 -385 0
-385 0 0 265 0 265 153 0 c145 0 152 -1 153 -20 0 -11 1 -110 2 -220 l2 -200
73 -3 72 -3 1 78 c1 86 1 312 0 438 l-1 80 -300 0 c-165 0 -301 -2 -301 -5z"/>
<path d="M184 491 l0 -489 313 0 c233 -1 313 2 314 11 1 7 3 156 4 332 1 176
3 325 4 331 1 7 121 10 384 10 l382 -1 0 -268 0 -267 -152 0 -153 0 0 220 c0
121 -3 220 -7 221 -15 1 -118 1 -130 0 -10 -1 -13 -67 -13 -296 l0 -294 303 2
302 2 0 415 0 415 -535 0 -535 0 0 -343 0 -342 -165 2 -165 3 -2 405 c0 223
-1 408 -2 413 -1 4 -34 7 -74 7 l-74 0 1 -489z"/>
</g>
</svg>
